<svg width="36" height="37" viewBox="0 0 36 37" fill="none" xmlns="http://www.w3.org/2000/svg">
<path opacity="0.4" fill-rule="evenodd" clip-rule="evenodd" d="M3.375 32C3.375 31.3787 3.87868 30.875 4.5 30.875H31.5C32.1213 30.875 32.625 31.3787 32.625 32C32.625 32.6213 32.1213 33.125 31.5 33.125H4.5C3.87868 33.125 3.375 32.6213 3.375 32Z" fill="#FF6C1A"/>
<path d="M10.9794 27.4823L16.1285 26.7467C16.8712 26.6406 17.5595 26.2965 18.0901 25.766L28.0324 15.8236C28.0324 15.8236 25.5805 15.8236 23.1286 13.3716C20.6766 10.9197 20.6766 8.46777 20.6766 8.46777L10.7342 18.4101C10.2037 18.9407 9.85958 19.629 9.75347 20.3717L9.01789 25.5208C8.85443 26.665 9.8352 27.6458 10.9794 27.4823Z" fill="#FF6C1A"/>
<path opacity="0.4" d="M30.4855 8.46756L28.0336 6.01563C26.6794 4.66146 24.4838 4.66146 23.1297 6.01563L20.6777 8.46757C20.6777 8.46757 20.6777 10.9195 23.1297 13.3714C25.5816 15.8234 28.0335 15.8234 28.0335 15.8234L30.4855 13.3714C31.8397 12.0173 31.8397 9.82173 30.4855 8.46756Z" fill="#FF6C1A"/>
</svg>
